<svg width="12" height="10" viewBox="0 0 12 10" fill="none" xmlns="http://www.w3.org/2000/svg">
<path d="M2.06934 0.046875V10H0.0253906V0.046875H2.06934ZM7.86621 6.45215H5.33008V4.85254H7.86621C8.25814 4.85254 8.57715 4.78874 8.82324 4.66113C9.06934 4.52897 9.24935 4.34668 9.36328 4.11426C9.47721 3.88184 9.53418 3.61979 9.53418 3.32812C9.53418 3.0319 9.47721 2.75618 9.36328 2.50098C9.24935 2.24577 9.06934 2.04069 8.82324 1.88574C8.57715 1.73079 8.25814 1.65332 7.86621 1.65332H6.04102V10H3.99023V0.046875H7.86621C8.64551 0.046875 9.31315 0.188151 9.86914 0.470703C10.4297 0.748698 10.8581 1.13379 11.1543 1.62598C11.4505 2.11816 11.5986 2.68099 11.5986 3.31445C11.5986 3.95703 11.4505 4.51302 11.1543 4.98242C10.8581 5.45182 10.4297 5.81413 9.86914 6.06934C9.31315 6.32454 8.64551 6.45215 7.86621 6.45215Z" fill="#252F3B"/>
</svg>
