<svg width="17" height="12" viewBox="0 0 17 12" fill="none" xmlns="http://www.w3.org/2000/svg">
<path d="M14.7132 0C15.5535 0 16.2353 0.671562 16.2353 1.5C16.2353 1.97188 16.0102 2.41563 15.6265 2.7L8.72647 7.8C8.36498 8.06563 7.87031 8.06563 7.50882 7.8L0.608823 2.7C0.22555 2.41563 0 1.97188 0 1.5C0 0.671562 0.681438 0 1.52206 0H14.7132ZM6.9 8.6C7.62298 9.13438 8.61231 9.13438 9.33529 8.6L16.2353 3.5V10C16.2353 11.1031 15.3252 12 14.2059 12H2.02941C0.908479 12 0 11.1031 0 10V3.5L6.9 8.6Z" fill="#252F3B"/>
</svg>
