<svg width="16" height="14" viewBox="0 0 16 14" fill="none" xmlns="http://www.w3.org/2000/svg">
<path d="M7.47031 8.63653C6.59258 7.54828 4.56914 4.84711 4.56914 3.33135C4.56914 1.49161 6.06211 0 7.85039 0C9.68789 0 11.1563 1.49161 11.1563 3.33135C11.1563 4.84711 9.15742 7.54828 8.27969 8.63653C8.06914 8.92802 7.68086 8.92802 7.47031 8.63653ZM11.375 13.9639V5.56335C11.4707 5.3718 11.5582 5.18303 11.6375 4.99147C11.6512 4.95816 11.6648 4.92485 11.6785 4.88876L14.8504 3.60063C15.2824 3.42574 15.75 3.74777 15.75 4.21971V11.7375C15.75 12.0095 15.5859 12.2538 15.3371 12.3565L11.375 13.9639ZM0.412617 5.19968L3.7625 3.83938C3.82813 4.23359 3.96211 4.62502 4.1125 4.99147C4.1918 5.18303 4.2793 5.3718 4.375 5.56335V12.5425L0.899883 13.9556C0.468945 14.1055 0 13.8084 0 13.3365V5.81876C0 5.5467 0.163379 5.27741 0.412617 5.19968ZM10.5 14L5.22539 12.4759V7.07912C5.81055 7.94805 6.40664 8.73369 6.78672 9.19175C7.34727 9.92742 8.40273 9.92742 8.96328 9.19175C9.34336 8.73369 9.93945 7.94805 10.5 7.07912V14Z" fill="#252F3B"/>
</svg>
